<?xml version="1.0" encoding="UTF-8" standalone="no"?>
<!DOCTYPE svg PUBLIC "-//W3C//DTD SVG 1.1//EN"
 "http://www.w3.org/Graphics/SVG/1.1/DTD/svg11.dtd">
<!-- Generated by graphviz version 2.38.0 (20140413.2041)
 -->
<!-- Title: IControl Pages: 1 -->
<!--zoomable 1788 -->
<svg id="main" version="1.1" xmlns="http://www.w3.org/2000/svg" xmlns:xlink="http://www.w3.org/1999/xlink" xml:space="preserve" onload="init(evt)">
<style type="text/css"><![CDATA[
.edge:hover path { stroke: red; }
.edge:hover polygon { stroke: red; fill: red; }
]]></style>
<script type="text/javascript"><![CDATA[
var edges = document.getElementsByTagName('g');
if (edges && edges.length) {
  for (var i=0;i<edges.length;i++) {
    if (edges[i].id.substr(0,4)=='edge') {
      edges[i].setAttribute('class','edge');
    }
  }
}
]]></script>
        <defs>
                <circle id="rim" cx="0" cy="0" r="7"/>
                <circle id="rim2" cx="0" cy="0" r="3.5"/>
                <g id="zoomPlus">
                        <use xlink:href="#rim" fill="#404040">
                                <set attributeName="fill" to="#808080" begin="zoomplus.mouseover" end="zoomplus.mouseout"/>
                        </use>
                        <path d="M-4,0h8M0,-4v8" fill="none" stroke="white" stroke-width="1.5" pointer-events="none"/>
                </g>
                <g id="zoomMin">
                        <use xlink:href="#rim" fill="#404040">
                                <set attributeName="fill" to="#808080" begin="zoomminus.mouseover" end="zoomminus.mouseout"/>
                        </use>
                        <path d="M-4,0h8" fill="none" stroke="white" stroke-width="1.5" pointer-events="none"/>
                </g>
                <g id="dirArrow">
                        <path fill="none" stroke="white" stroke-width="1.5" d="M0,-3.0v7 M-2.5,-0.5L0,-3.0L2.5,-0.5"/>
                </g>
               <g id="resetDef">
                       <use xlink:href="#rim2" fill="#404040">
                               <set attributeName="fill" to="#808080" begin="reset.mouseover" end="reset.mouseout"/>
                       </use>
               </g>
        </defs>

<script type="text/javascript">
var viewWidth = 391;
var viewHeight = 1788;
var sectionId = 'dynsection-0';
</script>
<script xlink:href="svgpan.js"/>
<svg id="graph" class="graph">
<g id="viewport">
<title>IControl</title>
<polygon fill="white" stroke="none" points="-4,4 -4,-1784 387,-1784 387,4 -4,4"/>
<!-- Node1 -->
<g id="node1" class="node"><title>Node1</title>
<polygon fill="#bfbfbf" stroke="black" points="0,-886.5 0,-905.5 53,-905.5 53,-886.5 0,-886.5"/>
<text text-anchor="middle" x="26.5" y="-893.5" font-family="Helvetica,sans-Serif" font-size="10.00">IControl</text>
</g>
<!-- Node2 -->
<g id="node2" class="node"><title>Node2</title>
<g id="a_node2"><a xlink:href="class_g_f_x_label_control.html" target="_top" xlink:title="Control to display the graphics backend. ">
<polygon fill="white" stroke="black" points="123,-1760.5 123,-1779.5 218,-1779.5 218,-1760.5 123,-1760.5"/>
<text text-anchor="middle" x="170.5" y="-1767.5" font-family="Helvetica,sans-Serif" font-size="10.00">GFXLabelControl</text>
</a>
</g>
</g>
<!-- Node1&#45;&gt;Node2 -->
<g id="edge1" class="edge"><title>Node1&#45;&gt;Node2</title>
<path fill="none" stroke="midnightblue" d="M27.546,-915.758C28.0076,-1037.74 33.0919,-1685.35 89,-1751 97.4721,-1760.95 110.093,-1766.23 122.842,-1768.89"/>
<polygon fill="midnightblue" stroke="midnightblue" points="31.0457,-915.62 27.5142,-905.632 24.0457,-915.642 31.0457,-915.62"/>
</g>
<!-- Node3 -->
<g id="node3" class="node"><title>Node3</title>
<g id="a_node3"><a xlink:href="class_i_bitmap_control.html" target="_top" xlink:title="A basic control to draw a bitmap, or one frame of a stacked bitmap depending on the current value...">
<polygon fill="white" stroke="black" points="126.5,-1722.5 126.5,-1741.5 214.5,-1741.5 214.5,-1722.5 126.5,-1722.5"/>
<text text-anchor="middle" x="170.5" y="-1729.5" font-family="Helvetica,sans-Serif" font-size="10.00">IBitmapControl</text>
</a>
</g>
</g>
<!-- Node1&#45;&gt;Node3 -->
<g id="edge2" class="edge"><title>Node1&#45;&gt;Node3</title>
<path fill="none" stroke="midnightblue" d="M27.6176,-915.979C28.4995,-1035.28 35.6251,-1650.53 89,-1713 98.2349,-1723.81 112.366,-1729.1 126.226,-1731.52"/>
<polygon fill="midnightblue" stroke="midnightblue" points="31.1161,-915.726 27.5488,-905.749 24.1163,-915.773 31.1161,-915.726"/>
</g>
<!-- Node5 -->
<g id="node5" class="node"><title>Node5</title>
<g id="a_node5"><a xlink:href="class_i_bubble_control.html" target="_top" xlink:title="A special control to draw contextual info as a slider etc is moved If used in the main IControl stack...">
<polygon fill="white" stroke="black" points="127.5,-1684.5 127.5,-1703.5 213.5,-1703.5 213.5,-1684.5 127.5,-1684.5"/>
<text text-anchor="middle" x="170.5" y="-1691.5" font-family="Helvetica,sans-Serif" font-size="10.00">IBubbleControl</text>
</a>
</g>
</g>
<!-- Node1&#45;&gt;Node5 -->
<g id="edge4" class="edge"><title>Node1&#45;&gt;Node5</title>
<path fill="none" stroke="midnightblue" d="M27.6928,-915.76C28.9966,-1031.23 38.0895,-1615.64 89,-1675 98.4416,-1686.01 112.963,-1691.29 127.087,-1693.65"/>
<polygon fill="midnightblue" stroke="midnightblue" points="31.1906,-915.525 27.5847,-905.562 24.191,-915.599 31.1906,-915.525"/>
</g>
<!-- Node6 -->
<g id="node6" class="node"><title>Node6</title>
<g id="a_node6"><a xlink:href="class_i_button_control_base.html" target="_top" xlink:title="A base class for buttons/momentary switches &#45; cannot be linked to parameters. ">
<polygon fill="white" stroke="red" points="115.5,-1646.5 115.5,-1665.5 225.5,-1665.5 225.5,-1646.5 115.5,-1646.5"/>
<text text-anchor="middle" x="170.5" y="-1653.5" font-family="Helvetica,sans-Serif" font-size="10.00">IButtonControlBase</text>
</a>
</g>
</g>
<!-- Node1&#45;&gt;Node6 -->
<g id="edge5" class="edge"><title>Node1&#45;&gt;Node6</title>
<path fill="none" stroke="midnightblue" d="M27.7785,-915.834C29.5326,-1028.1 40.5944,-1580.79 89,-1637 95.8401,-1644.94 105.325,-1649.9 115.39,-1652.93"/>
<polygon fill="midnightblue" stroke="midnightblue" points="31.2749,-915.558 27.626,-905.612 24.2757,-915.663 31.2749,-915.558"/>
</g>
<!-- Node7 -->
<g id="node7" class="node"><title>Node7</title>
<g id="a_node7"><a xlink:href="class_i_color_picker_control.html" target="_top" xlink:title="A control for choosing a color. ">
<polygon fill="white" stroke="black" points="117,-1608.5 117,-1627.5 224,-1627.5 224,-1608.5 117,-1608.5"/>
<text text-anchor="middle" x="170.5" y="-1615.5" font-family="Helvetica,sans-Serif" font-size="10.00">IColorPickerControl</text>
</a>
</g>
</g>
<!-- Node1&#45;&gt;Node7 -->
<g id="edge6" class="edge"><title>Node1&#45;&gt;Node7</title>
<path fill="none" stroke="midnightblue" d="M27.8724,-915.825C30.0924,-1024.6 43.0838,-1545.92 89,-1599 96.1396,-1607.25 106.135,-1612.28 116.661,-1615.27"/>
<polygon fill="midnightblue" stroke="midnightblue" points="31.3677,-915.55 27.6715,-905.621 24.3691,-915.688 31.3677,-915.55"/>
</g>
<!-- Node8 -->
<g id="node8" class="node"><title>Node8</title>
<g id="a_node8"><a xlink:href="class_i_corner_resizer_control.html" target="_top" xlink:title="A control for resizing the plug&#45;in window by clicking and dragging in the bottom right&#45;hand corner Th...">
<polygon fill="white" stroke="black" points="111,-1570.5 111,-1589.5 230,-1589.5 230,-1570.5 111,-1570.5"/>
<text text-anchor="middle" x="170.5" y="-1577.5" font-family="Helvetica,sans-Serif" font-size="10.00">ICornerResizerControl</text>
</a>
</g>
</g>
<!-- Node1&#45;&gt;Node8 -->
<g id="edge7" class="edge"><title>Node1&#45;&gt;Node8</title>
<path fill="none" stroke="midnightblue" d="M27.9745,-915.73C30.6756,-1020.73 45.5577,-1511.03 89,-1561 94.8411,-1567.72 102.575,-1572.3 110.941,-1575.38"/>
<polygon fill="midnightblue" stroke="midnightblue" points="31.4699,-915.498 27.7212,-905.589 24.4721,-915.673 31.4699,-915.498"/>
</g>
<!-- Node9 -->
<g id="node9" class="node"><title>Node9</title>
<g id="a_node9"><a xlink:href="class_i_dir_browse_control_base.html" target="_top" xlink:title="An abstract IControl base class that you can inherit from in order to make a control that pops up a m...">
<polygon fill="white" stroke="red" points="108,-1532.5 108,-1551.5 233,-1551.5 233,-1532.5 108,-1532.5"/>
<text text-anchor="middle" x="170.5" y="-1539.5" font-family="Helvetica,sans-Serif" font-size="10.00">IDirBrowseControlBase</text>
</a>
</g>
</g>
<!-- Node1&#45;&gt;Node9 -->
<g id="edge8" class="edge"><title>Node1&#45;&gt;Node9</title>
<path fill="none" stroke="midnightblue" d="M28.0851,-915.543C31.2819,-1016.5 48.016,-1476.12 89,-1523 94.1037,-1528.84 100.636,-1533.06 107.767,-1536.08"/>
<polygon fill="midnightblue" stroke="midnightblue" points="31.5825,-915.399 27.7753,-905.512 24.5858,-915.616 31.5825,-915.399"/>
</g>
<!-- Node10 -->
<g id="node10" class="node"><title>Node10</title>
<g id="a_node10"><a xlink:href="class_i_f_p_s_display_control.html" target="_top" xlink:title="Performance display meter, based on code from NanoVG This is a special control that lives outside the...">
<polygon fill="white" stroke="black" points="117.5,-1494.5 117.5,-1513.5 223.5,-1513.5 223.5,-1494.5 117.5,-1494.5"/>
<text text-anchor="middle" x="170.5" y="-1501.5" font-family="Helvetica,sans-Serif" font-size="10.00">IFPSDisplayControl</text>
</a>
</g>
</g>
<!-- Node1&#45;&gt;Node10 -->
<g id="edge9" class="edge"><title>Node1&#45;&gt;Node10</title>
<path fill="none" stroke="midnightblue" d="M28.2283,-915.88C31.9895,-1013.73 50.5402,-1441.28 89,-1485 96.3035,-1493.3 106.496,-1498.33 117.179,-1501.3"/>
<polygon fill="midnightblue" stroke="midnightblue" points="31.7246,-915.713 27.8508,-905.852 24.7295,-915.976 31.7246,-915.713"/>
</g>
<!-- Node11 -->
<g id="node11" class="node"><title>Node11</title>
<g id="a_node11"><a xlink:href="class_i_graphics_live_edit.html" target="_top" xlink:title="A control to enable live modification of control layout in an IGraphics context in debug builds This ...">
<polygon fill="white" stroke="black" points="121.5,-1456.5 121.5,-1475.5 219.5,-1475.5 219.5,-1456.5 121.5,-1456.5"/>
<text text-anchor="middle" x="170.5" y="-1463.5" font-family="Helvetica,sans-Serif" font-size="10.00">IGraphicsLiveEdit</text>
</a>
</g>
</g>
<!-- Node1&#45;&gt;Node11 -->
<g id="edge10" class="edge"><title>Node1&#45;&gt;Node11</title>
<path fill="none" stroke="midnightblue" d="M28.3732,-915.757C32.6899,-1009.48 52.9983,-1406.37 89,-1447 97.2853,-1456.35 109.236,-1461.54 121.405,-1464.32"/>
<polygon fill="midnightblue" stroke="midnightblue" points="31.8649,-915.492 27.9165,-905.661 24.872,-915.808 31.8649,-915.492"/>
</g>
<!-- Node12 -->
<g id="node12" class="node"><title>Node12</title>
<g id="a_node12"><a xlink:href="class_i_knob_control_base.html" target="_top" xlink:title="A base class for knob/dial controls, to handle mouse action and Sender. ">
<polygon fill="white" stroke="red" points="120,-1418.5 120,-1437.5 221,-1437.5 221,-1418.5 120,-1418.5"/>
<text text-anchor="middle" x="170.5" y="-1425.5" font-family="Helvetica,sans-Serif" font-size="10.00">IKnobControlBase</text>
</a>
</g>
</g>
<!-- Node1&#45;&gt;Node12 -->
<g id="edge11" class="edge"><title>Node1&#45;&gt;Node12</title>
<path fill="none" stroke="midnightblue" d="M28.5623,-916.077C33.5132,-1006.3 55.5071,-1371.51 89,-1409 96.9407,-1417.89 108.194,-1423.01 119.778,-1425.87"/>
<polygon fill="midnightblue" stroke="midnightblue" points="32.0441,-915.644 28.0099,-905.848 25.0543,-916.022 32.0441,-915.644"/>
</g>
<!-- Node13 -->
<g id="node13" class="node"><title>Node13</title>
<g id="a_node13"><a xlink:href="class_i_lambda_control.html" target="_top" xlink:title="A control that can be specialised with a lambda function, for quick experiments without making a cust...">
<polygon fill="white" stroke="black" points="124.5,-1380.5 124.5,-1399.5 216.5,-1399.5 216.5,-1380.5 124.5,-1380.5"/>
<text text-anchor="middle" x="170.5" y="-1387.5" font-family="Helvetica,sans-Serif" font-size="10.00">ILambdaControl</text>
</a>
</g>
</g>
<!-- Node1&#45;&gt;Node13 -->
<g id="edge12" class="edge"><title>Node1&#45;&gt;Node13</title>
<path fill="none" stroke="midnightblue" d="M27.1848,-916.243C26.3381,-998.003 27.4245,-1302.73 89,-1371 98.0405,-1381.02 111.295,-1386.25 124.451,-1388.85"/>
<polygon fill="midnightblue" stroke="midnightblue" points="30.6894,-915.897 27.3168,-905.853 23.69,-915.808 30.6894,-915.897"/>
</g>
<!-- Node14 -->
<g id="node14" class="node"><title>Node14</title>
<g id="a_node14"><a xlink:href="class_i_l_e_d_control.html" target="_top" xlink:title="Glowing LED control. ">
<polygon fill="white" stroke="black" points="134.5,-1342.5 134.5,-1361.5 206.5,-1361.5 206.5,-1342.5 134.5,-1342.5"/>
<text text-anchor="middle" x="170.5" y="-1349.5" font-family="Helvetica,sans-Serif" font-size="10.00">ILEDControl</text>
</a>
</g>
</g>
<!-- Node1&#45;&gt;Node14 -->
<g id="edge13" class="edge"><title>Node1&#45;&gt;Node14</title>
<path fill="none" stroke="midnightblue" d="M27.438,-916.095C27.6201,-993.457 32.2815,-1270.81 89,-1333 100.418,-1345.52 118.413,-1350.53 134.497,-1352.3"/>
<polygon fill="midnightblue" stroke="midnightblue" points="30.9379,-915.818 27.4389,-905.818 23.9379,-915.818 30.9379,-915.818"/>
</g>
<!-- Node15 -->
<g id="node15" class="node"><title>Node15</title>
<g id="a_node15"><a xlink:href="class_i_panel_control.html" target="_top" xlink:title="A basic control to fill a rectangle with a color or gradient. ">
<polygon fill="white" stroke="black" points="131,-1304.5 131,-1323.5 210,-1323.5 210,-1304.5 131,-1304.5"/>
<text text-anchor="middle" x="170.5" y="-1311.5" font-family="Helvetica,sans-Serif" font-size="10.00">IPanelControl</text>
</a>
</g>
</g>
<!-- Node1&#45;&gt;Node15 -->
<g id="edge14" class="edge"><title>Node1&#45;&gt;Node15</title>
<path fill="none" stroke="midnightblue" d="M27.73,-915.735C28.9861,-988.27 37.0743,-1238.81 89,-1295 99.6228,-1306.5 115.793,-1311.65 130.862,-1313.77"/>
<polygon fill="midnightblue" stroke="midnightblue" points="31.2289,-915.626 27.5815,-905.679 24.2297,-915.73 31.2289,-915.626"/>
</g>
<!-- Node16 -->
<g id="node16" class="node"><title>Node16</title>
<g id="a_node16"><a xlink:href="class_i_popup_menu_control.html" target="_top" xlink:title="A base control for a pop&#45;up menu/drop&#45;down list that stays within the bounds of the IGraphics context...">
<polygon fill="white" stroke="black" points="115.5,-1266.5 115.5,-1285.5 225.5,-1285.5 225.5,-1266.5 115.5,-1266.5"/>
<text text-anchor="middle" x="170.5" y="-1273.5" font-family="Helvetica,sans-Serif" font-size="10.00">IPopupMenuControl</text>
</a>
</g>
</g>
<!-- Node1&#45;&gt;Node16 -->
<g id="edge15" class="edge"><title>Node1&#45;&gt;Node16</title>
<path fill="none" stroke="midnightblue" d="M28.0928,-916.016C30.5301,-984.348 42.0016,-1206.94 89,-1257 96.0767,-1264.54 105.54,-1269.34 115.489,-1272.35"/>
<polygon fill="midnightblue" stroke="midnightblue" points="31.5827,-915.648 27.7554,-905.769 24.5865,-915.879 31.5827,-915.648"/>
</g>
<!-- Node17 -->
<g id="node17" class="node"><title>Node17</title>
<g id="a_node17"><a xlink:href="class_i_slider_control_base.html" target="_top" xlink:title="A base class for slider/fader controls, to handle mouse action and Sender. ">
<polygon fill="white" stroke="red" points="118.5,-1228.5 118.5,-1247.5 222.5,-1247.5 222.5,-1228.5 118.5,-1228.5"/>
<text text-anchor="middle" x="170.5" y="-1235.5" font-family="Helvetica,sans-Serif" font-size="10.00">ISliderControlBase</text>
</a>
</g>
</g>
<!-- Node1&#45;&gt;Node17 -->
<g id="edge16" class="edge"><title>Node1&#45;&gt;Node17</title>
<path fill="none" stroke="midnightblue" d="M28.5277,-915.934C32.2063,-979.364 46.822,-1174.94 89,-1219 96.7453,-1227.09 107.244,-1232.02 118.099,-1234.95"/>
<polygon fill="midnightblue" stroke="midnightblue" points="32.0085,-915.486 27.964,-905.694 25.0191,-915.871 32.0085,-915.486"/>
</g>
<!-- Node18 -->
<g id="node18" class="node"><title>Node18</title>
<g id="a_node18"><a xlink:href="class_i_s_v_g_control.html" target="_top" xlink:title="A basic control to draw an SVG image to the screen. ">
<polygon fill="white" stroke="black" points="133.5,-1190.5 133.5,-1209.5 207.5,-1209.5 207.5,-1190.5 133.5,-1190.5"/>
<text text-anchor="middle" x="170.5" y="-1197.5" font-family="Helvetica,sans-Serif" font-size="10.00">ISVGControl</text>
</a>
</g>
</g>
<!-- Node1&#45;&gt;Node18 -->
<g id="edge17" class="edge"><title>Node1&#45;&gt;Node18</title>
<path fill="none" stroke="midnightblue" d="M29.0708,-915.841C34.0843,-974.087 51.6154,-1142.89 89,-1181 100.463,-1192.69 117.681,-1197.73 133.254,-1199.73"/>
<polygon fill="midnightblue" stroke="midnightblue" points="32.5475,-915.413 28.2328,-905.737 25.5714,-915.992 32.5475,-915.413"/>
</g>
<!-- Node19 -->
<g id="node19" class="node"><title>Node19</title>
<g id="a_node19"><a xlink:href="class_i_switch_control_base.html" target="_top" xlink:title="A base class for switch controls. ">
<polygon fill="white" stroke="red" points="116.5,-1152.5 116.5,-1171.5 224.5,-1171.5 224.5,-1152.5 116.5,-1152.5"/>
<text text-anchor="middle" x="170.5" y="-1159.5" font-family="Helvetica,sans-Serif" font-size="10.00">ISwitchControlBase</text>
</a>
</g>
</g>
<!-- Node1&#45;&gt;Node19 -->
<g id="edge18" class="edge"><title>Node1&#45;&gt;Node19</title>
<path fill="none" stroke="midnightblue" d="M29.7498,-915.573C36.1867,-968.165 56.3422,-1110.74 89,-1143 96.4575,-1150.37 106.208,-1155.08 116.337,-1158.05"/>
<polygon fill="midnightblue" stroke="midnightblue" points="33.2117,-915.045 28.5549,-905.529 26.2607,-915.872 33.2117,-915.045"/>
</g>
<!-- Node20 -->
<g id="node20" class="node"><title>Node20</title>
<g id="a_node20"><a xlink:href="class_i_text_control.html" target="_top" xlink:title="A basic control to display some text. ">
<polygon fill="white" stroke="red" points="134.5,-1114.5 134.5,-1133.5 206.5,-1133.5 206.5,-1114.5 134.5,-1114.5"/>
<text text-anchor="middle" x="170.5" y="-1121.5" font-family="Helvetica,sans-Serif" font-size="10.00">ITextControl</text>
</a>
</g>
</g>
<!-- Node1&#45;&gt;Node20 -->
<g id="edge19" class="edge"><title>Node1&#45;&gt;Node20</title>
<path fill="none" stroke="midnightblue" d="M27.1703,-915.746C27.6119,-957.191 34.779,-1053.65 89,-1105 101.094,-1116.45 118.757,-1121.43 134.458,-1123.44"/>
<polygon fill="midnightblue" stroke="midnightblue" points="30.6705,-915.606 27.1906,-905.599 23.6705,-915.592 30.6705,-915.606"/>
</g>
<!-- Node21 -->
<g id="node21" class="node"><title>Node21</title>
<g id="a_node21"><a xlink:href="class_i_text_entry_control.html" target="_top" xlink:title="A Text entry widget drawn by IGraphics. ">
<polygon fill="white" stroke="black" points="122,-1076.5 122,-1095.5 219,-1095.5 219,-1076.5 122,-1076.5"/>
<text text-anchor="middle" x="170.5" y="-1083.5" font-family="Helvetica,sans-Serif" font-size="10.00">ITextEntryControl</text>
</a>
</g>
</g>
<!-- Node1&#45;&gt;Node21 -->
<g id="edge20" class="edge"><title>Node1&#45;&gt;Node21</title>
<path fill="none" stroke="midnightblue" d="M28.7173,-916.055C32.0131,-951.914 44.1856,-1027 89,-1067 98.1062,-1075.13 110.04,-1079.95 121.92,-1082.77"/>
<polygon fill="midnightblue" stroke="midnightblue" points="32.1915,-915.584 27.9291,-905.885 25.2124,-916.125 32.1915,-915.584"/>
</g>
<!-- Node22 -->
<g id="node22" class="node"><title>Node22</title>
<g id="a_node22"><a xlink:href="class_i_v_baked_preset_manager_control.html" target="_top" xlink:title="A &quot;meta control&quot; for a &quot;preset manager&quot; for &quot;baked in&quot; factory presets It adds several child buttons...">
<polygon fill="white" stroke="black" points="89,-1038.5 89,-1057.5 252,-1057.5 252,-1038.5 89,-1038.5"/>
<text text-anchor="middle" x="170.5" y="-1045.5" font-family="Helvetica,sans-Serif" font-size="10.00">IVBakedPresetManagerControl</text>
</a>
</g>
</g>
<!-- Node1&#45;&gt;Node22 -->
<g id="edge21" class="edge"><title>Node1&#45;&gt;Node22</title>
<path fill="none" stroke="midnightblue" d="M30.9784,-915.682C37.2215,-944.983 53.1806,-999.753 89,-1029 93.6716,-1032.81 98.9771,-1035.89 104.583,-1038.36"/>
<polygon fill="midnightblue" stroke="midnightblue" points="34.4005,-914.944 29.0403,-905.805 27.5315,-916.292 34.4005,-914.944"/>
</g>
<!-- Node23 -->
<g id="node23" class="node"><title>Node23</title>
<g id="a_node23"><a xlink:href="class_i_v_color_swatch_control.html" target="_top" xlink:title="A control to show a colour swatch of up to 9 colous. ">
<polygon fill="white" stroke="black" points="111,-1000.5 111,-1019.5 230,-1019.5 230,-1000.5 111,-1000.5"/>
<text text-anchor="middle" x="170.5" y="-1007.5" font-family="Helvetica,sans-Serif" font-size="10.00">IVColorSwatchControl</text>
</a>
</g>
</g>
<!-- Node1&#45;&gt;Node23 -->
<g id="edge22" class="edge"><title>Node1&#45;&gt;Node23</title>
<path fill="none" stroke="midnightblue" d="M34.6697,-915.047C43.8726,-936.83 61.9515,-971.933 89,-991 95.5725,-995.633 103.122,-999.149 110.906,-1001.81"/>
<polygon fill="midnightblue" stroke="midnightblue" points="37.8335,-913.533 30.8644,-905.553 31.3359,-916.137 37.8335,-913.533"/>
</g>
<!-- Node24 -->
<g id="node24" class="node"><title>Node24</title>
<g id="a_node24"><a xlink:href="class_i_v_display_control.html" target="_top" xlink:title="A control to display a rolling graphics of historical values. ">
<polygon fill="white" stroke="black" points="123,-962.5 123,-981.5 218,-981.5 218,-962.5 123,-962.5"/>
<text text-anchor="middle" x="170.5" y="-969.5" font-family="Helvetica,sans-Serif" font-size="10.00">IVDisplayControl</text>
</a>
</g>
</g>
<!-- Node1&#45;&gt;Node24 -->
<g id="edge23" class="edge"><title>Node1&#45;&gt;Node24</title>
<path fill="none" stroke="midnightblue" d="M41.8018,-913.423C53.264,-926.251 70.4515,-943.116 89,-953 99.3916,-958.538 111.385,-962.477 122.889,-965.274"/>
<polygon fill="midnightblue" stroke="midnightblue" points="44.3183,-910.982 35.1395,-905.69 39.015,-915.551 44.3183,-910.982"/>
</g>
<!-- Node25 -->
<g id="node25" class="node"><title>Node25</title>
<g id="a_node25"><a xlink:href="class_i_v_group_control.html" target="_top" xlink:title="A control to draw a rectangle around a named IControl group. ">
<polygon fill="white" stroke="black" points="126,-924.5 126,-943.5 215,-943.5 215,-924.5 126,-924.5"/>
<text text-anchor="middle" x="170.5" y="-931.5" font-family="Helvetica,sans-Serif" font-size="10.00">IVGroupControl</text>
</a>
</g>
</g>
<!-- Node1&#45;&gt;Node25 -->
<g id="edge24" class="edge"><title>Node1&#45;&gt;Node25</title>
<path fill="none" stroke="midnightblue" d="M62.8079,-907.358C71.3495,-909.981 80.4748,-912.68 89,-915 101.193,-918.318 114.516,-921.6 126.75,-924.479"/>
<polygon fill="midnightblue" stroke="midnightblue" points="63.7083,-903.972 53.1199,-904.341 61.6271,-910.656 63.7083,-903.972"/>
</g>
<!-- Node26 -->
<g id="node26" class="node"><title>Node26</title>
<g id="a_node26"><a xlink:href="class_i_v_keyboard_control.html" target="_top" xlink:title="Vectorial keyboard control. ">
<polygon fill="white" stroke="black" points="118.5,-886.5 118.5,-905.5 222.5,-905.5 222.5,-886.5 118.5,-886.5"/>
<text text-anchor="middle" x="170.5" y="-893.5" font-family="Helvetica,sans-Serif" font-size="10.00">IVKeyboardControl</text>
</a>
</g>
</g>
<!-- Node1&#45;&gt;Node26 -->
<g id="edge25" class="edge"><title>Node1&#45;&gt;Node26</title>
<path fill="none" stroke="midnightblue" d="M63.5954,-896C80.2204,-896 100.244,-896 118.384,-896"/>
<polygon fill="midnightblue" stroke="midnightblue" points="63.2152,-892.5 53.2151,-896 63.2151,-899.5 63.2152,-892.5"/>
</g>
<!-- Node27 -->
<g id="node27" class="node"><title>Node27</title>
<g id="a_node27"><a xlink:href="class_i_v_number_box_control.html" target="_top" xlink:title="A &quot;meta control&quot; for a number box with an Inc/Dec button It adds several child buttons. ">
<polygon fill="white" stroke="black" points="112,-848.5 112,-867.5 229,-867.5 229,-848.5 112,-848.5"/>
<text text-anchor="middle" x="170.5" y="-855.5" font-family="Helvetica,sans-Serif" font-size="10.00">IVNumberBoxControl</text>
</a>
</g>
</g>
<!-- Node1&#45;&gt;Node27 -->
<g id="edge26" class="edge"><title>Node1&#45;&gt;Node27</title>
<path fill="none" stroke="midnightblue" d="M62.8079,-884.642C71.3495,-882.019 80.4748,-879.32 89,-877 101.193,-873.682 114.516,-870.4 126.75,-867.521"/>
<polygon fill="midnightblue" stroke="midnightblue" points="61.6271,-881.344 53.1199,-887.659 63.7083,-888.028 61.6271,-881.344"/>
</g>
<!-- Node28 -->
<g id="node28" class="node"><title>Node28</title>
<g id="a_node28"><a xlink:href="class_i_v_panel_control.html" target="_top" xlink:title="A panel control which can be styled with emboss etc. ">
<polygon fill="white" stroke="black" points="127.5,-810.5 127.5,-829.5 213.5,-829.5 213.5,-810.5 127.5,-810.5"/>
<text text-anchor="middle" x="170.5" y="-817.5" font-family="Helvetica,sans-Serif" font-size="10.00">IVPanelControl</text>
</a>
</g>
</g>
<!-- Node1&#45;&gt;Node28 -->
<g id="edge27" class="edge"><title>Node1&#45;&gt;Node28</title>
<path fill="none" stroke="midnightblue" d="M41.8018,-878.577C53.264,-865.749 70.4515,-848.884 89,-839 100.786,-832.72 114.632,-828.495 127.487,-825.661"/>
<polygon fill="midnightblue" stroke="midnightblue" points="39.015,-876.449 35.1395,-886.31 44.3183,-881.018 39.015,-876.449"/>
</g>
<!-- Node29 -->
<g id="node29" class="node"><title>Node29</title>
<g id="a_node29"><a xlink:href="class_i_v_plot_control.html" target="_top" xlink:title="a vector plot to display functions and waveforms ">
<polygon fill="white" stroke="black" points="131.5,-772.5 131.5,-791.5 209.5,-791.5 209.5,-772.5 131.5,-772.5"/>
<text text-anchor="middle" x="170.5" y="-779.5" font-family="Helvetica,sans-Serif" font-size="10.00">IVPlotControl</text>
</a>
</g>
</g>
<!-- Node1&#45;&gt;Node29 -->
<g id="edge28" class="edge"><title>Node1&#45;&gt;Node29</title>
<path fill="none" stroke="midnightblue" d="M34.6697,-876.953C43.8726,-855.17 61.9515,-820.067 89,-801 101.323,-792.313 117.08,-787.555 131.381,-784.966"/>
<polygon fill="midnightblue" stroke="midnightblue" points="31.3359,-875.863 30.8644,-886.447 37.8335,-878.467 31.3359,-875.863"/>
</g>
<!-- Node30 -->
<g id="node30" class="node"><title>Node30</title>
<g id="a_node30"><a xlink:href="class_i_v_scope_control.html" target="_top" xlink:title="Vectorial multichannel capable oscilloscope control. ">
<polygon fill="white" stroke="black" points="100.5,-723 100.5,-753 240.5,-753 240.5,-723 100.5,-723"/>
<text text-anchor="start" x="108.5" y="-741" font-family="Helvetica,sans-Serif" font-size="10.00">IVScopeControl&lt; MAXNC,</text>
<text text-anchor="middle" x="170.5" y="-730" font-family="Helvetica,sans-Serif" font-size="10.00"> MAXBUF &gt;</text>
</a>
</g>
</g>
<!-- Node1&#45;&gt;Node30 -->
<g id="edge29" class="edge"><title>Node1&#45;&gt;Node30</title>
<path fill="none" stroke="midnightblue" d="M31.3271,-876.244C37.9666,-847.25 54.369,-793.337 89,-763 93.4031,-759.143 98.3956,-755.881 103.686,-753.122"/>
<polygon fill="midnightblue" stroke="midnightblue" points="27.8326,-875.85 29.1793,-886.359 34.68,-877.304 27.8326,-875.85"/>
</g>
<!-- Node31 -->
<g id="node31" class="node"><title>Node31</title>
<g id="a_node31"><a xlink:href="class_i_v_track_control_base.html" target="_top" xlink:title="A base class for mult&#45;strip/track controls, such as multi&#45;sliders, meters. ">
<polygon fill="white" stroke="red" points="116.5,-684.5 116.5,-703.5 224.5,-703.5 224.5,-684.5 116.5,-684.5"/>
<text text-anchor="middle" x="170.5" y="-691.5" font-family="Helvetica,sans-Serif" font-size="10.00">IVTrackControlBase</text>
</a>
</g>
</g>
<!-- Node1&#45;&gt;Node31 -->
<g id="edge30" class="edge"><title>Node1&#45;&gt;Node31</title>
<path fill="none" stroke="midnightblue" d="M28.2362,-876.299C30.7356,-838.932 41.6407,-757.611 89,-714 96.6271,-706.976 106.332,-702.322 116.342,-699.259"/>
<polygon fill="midnightblue" stroke="midnightblue" points="24.7354,-876.222 27.6993,-886.394 31.7255,-876.594 24.7354,-876.222"/>
</g>
<!-- Node32 -->
<g id="node32" class="node"><title>Node32</title>
<g id="a_node32"><a xlink:href="class_i_v_x_y_pad_control.html" target="_top" xlink:title="A vector XY Pad slider control. ">
<polygon fill="white" stroke="black" points="126,-646.5 126,-665.5 215,-665.5 215,-646.5 126,-646.5"/>
<text text-anchor="middle" x="170.5" y="-653.5" font-family="Helvetica,sans-Serif" font-size="10.00">IVXYPadControl</text>
</a>
</g>
</g>
<!-- Node1&#45;&gt;Node32 -->
<g id="edge31" class="edge"><title>Node1&#45;&gt;Node32</title>
<path fill="none" stroke="midnightblue" d="M26.7919,-876.308C26.3817,-833.205 31.8026,-729.974 89,-675 98.8354,-665.547 112.457,-660.493 125.7,-657.876"/>
<polygon fill="midnightblue" stroke="midnightblue" points="23.2935,-876.423 27.0088,-886.345 30.2919,-876.272 23.2935,-876.423"/>
</g>
<!-- Node33 -->
<g id="node33" class="node"><title>Node33</title>
<g id="a_node33"><a xlink:href="class_test_animation_control.html" target="_top" xlink:title="Control to test animation. ">
<polygon fill="white" stroke="black" points="111,-608.5 111,-627.5 230,-627.5 230,-608.5 111,-608.5"/>
<text text-anchor="middle" x="170.5" y="-615.5" font-family="Helvetica,sans-Serif" font-size="10.00">TestAnimationControl</text>
</a>
</g>
</g>
<!-- Node1&#45;&gt;Node33 -->
<g id="edge32" class="edge"><title>Node1&#45;&gt;Node33</title>
<path fill="none" stroke="midnightblue" d="M29.5315,-876.199C35.5246,-821.666 54.8829,-671.071 89,-637 95.0964,-630.912 102.757,-626.634 110.914,-623.652"/>
<polygon fill="midnightblue" stroke="midnightblue" points="26.0344,-875.987 28.455,-886.301 32.995,-876.729 26.0344,-875.987"/>
</g>
<!-- Node34 -->
<g id="node34" class="node"><title>Node34</title>
<g id="a_node34"><a xlink:href="class_test_bezier_control.html" target="_top" xlink:title="Control to test drawing bezier curves. ">
<polygon fill="white" stroke="black" points="120.5,-570.5 120.5,-589.5 220.5,-589.5 220.5,-570.5 120.5,-570.5"/>
<text text-anchor="middle" x="170.5" y="-577.5" font-family="Helvetica,sans-Serif" font-size="10.00">TestBezierControl</text>
</a>
</g>
</g>
<!-- Node1&#45;&gt;Node34 -->
<g id="edge33" class="edge"><title>Node1&#45;&gt;Node34</title>
<path fill="none" stroke="midnightblue" d="M28.8847,-876.135C33.465,-816.224 50.1036,-638.985 89,-599 97.3106,-590.457 108.694,-585.456 120.285,-582.599"/>
<polygon fill="midnightblue" stroke="midnightblue" points="25.3671,-876.248 28.1265,-886.477 32.3484,-876.76 25.3671,-876.248"/>
</g>
<!-- Node35 -->
<g id="node35" class="node"><title>Node35</title>
<g id="a_node35"><a xlink:href="class_test_color_control.html" target="_top" xlink:title="Control to colors. ">
<polygon fill="white" stroke="black" points="123,-532.5 123,-551.5 218,-551.5 218,-532.5 123,-532.5"/>
<text text-anchor="middle" x="170.5" y="-539.5" font-family="Helvetica,sans-Serif" font-size="10.00">TestColorControl</text>
</a>
</g>
</g>
<!-- Node1&#45;&gt;Node35 -->
<g id="edge34" class="edge"><title>Node1&#45;&gt;Node35</title>
<path fill="none" stroke="midnightblue" d="M28.3738,-876.17C31.6392,-811.308 45.273,-606.98 89,-561 97.8072,-551.739 110.22,-546.621 122.667,-543.884"/>
<polygon fill="midnightblue" stroke="midnightblue" points="24.8721,-876.126 27.8935,-886.281 31.8642,-876.458 24.8721,-876.126"/>
</g>
<!-- Node36 -->
<g id="node36" class="node"><title>Node36</title>
<g id="a_node36"><a xlink:href="class_test_cursor_control.html" target="_top" xlink:title="Control to test changing the platform cursor. ">
<polygon fill="white" stroke="black" points="120,-494.5 120,-513.5 221,-513.5 221,-494.5 120,-494.5"/>
<text text-anchor="middle" x="170.5" y="-501.5" font-family="Helvetica,sans-Serif" font-size="10.00">TestCursorControl</text>
</a>
</g>
</g>
<!-- Node1&#45;&gt;Node36 -->
<g id="edge35" class="edge"><title>Node1&#45;&gt;Node36</title>
<path fill="none" stroke="midnightblue" d="M27.9653,-876.218C30.0097,-806.703 40.4145,-575.026 89,-523 97.0367,-514.394 108.184,-509.352 119.625,-506.474"/>
<polygon fill="midnightblue" stroke="midnightblue" points="24.4654,-876.171 27.6964,-886.261 31.4629,-876.358 24.4654,-876.171"/>
</g>
<!-- Node37 -->
<g id="node37" class="node"><title>Node37</title>
<g id="a_node37"><a xlink:href="class_test_draw_context_control.html" target="_top" xlink:title="Control to test obtaining a drawing API (NanoVG, LICE, Cairo, AGG etc) context and using that API wit...">
<polygon fill="white" stroke="black" points="105,-456.5 105,-475.5 236,-475.5 236,-456.5 105,-456.5"/>
<text text-anchor="middle" x="170.5" y="-463.5" font-family="Helvetica,sans-Serif" font-size="10.00">TestDrawContextControl</text>
</a>
</g>
</g>
<!-- Node1&#45;&gt;Node37 -->
<g id="edge36" class="edge"><title>Node1&#45;&gt;Node37</title>
<path fill="none" stroke="midnightblue" d="M27.6331,-876.161C28.5437,-802.101 35.5598,-543.085 89,-485 93.4724,-480.139 98.9366,-476.411 104.892,-473.567"/>
<polygon fill="midnightblue" stroke="midnightblue" points="24.1311,-876.366 27.5332,-886.4 31.1307,-876.435 24.1311,-876.366"/>
</g>
<!-- Node38 -->
<g id="node38" class="node"><title>Node38</title>
<g id="a_node38"><a xlink:href="class_test_drop_shadow_control.html" target="_top" xlink:title="Control to test layer drop shadows. ">
<polygon fill="white" stroke="black" points="105,-418.5 105,-437.5 236,-437.5 236,-418.5 105,-418.5"/>
<text text-anchor="middle" x="170.5" y="-425.5" font-family="Helvetica,sans-Serif" font-size="10.00">TestDropShadowControl</text>
</a>
</g>
</g>
<!-- Node1&#45;&gt;Node38 -->
<g id="edge37" class="edge"><title>Node1&#45;&gt;Node38</title>
<path fill="none" stroke="midnightblue" d="M27.354,-875.871C27.205,-797.123 30.7459,-511.111 89,-447 93.4421,-442.111 98.887,-438.366 104.831,-435.511"/>
<polygon fill="midnightblue" stroke="midnightblue" points="23.8558,-876.317 27.3992,-886.302 30.8557,-876.287 23.8558,-876.317"/>
</g>
<!-- Node39 -->
<g id="node39" class="node"><title>Node39</title>
<g id="a_node39"><a xlink:href="class_test_flex_box_control.html" target="_top" xlink:title="Control to test IGraphicsFlexBox. ">
<polygon fill="white" stroke="black" points="117,-380.5 117,-399.5 224,-399.5 224,-380.5 117,-380.5"/>
<text text-anchor="middle" x="170.5" y="-387.5" font-family="Helvetica,sans-Serif" font-size="10.00">TestFlexBoxControl</text>
</a>
</g>
</g>
<!-- Node1&#45;&gt;Node39 -->
<g id="edge38" class="edge"><title>Node1&#45;&gt;Node39</title>
<path fill="none" stroke="midnightblue" d="M27.1204,-876.295C25.9517,-794.074 25.739,-479.361 89,-409 96.2966,-400.885 106.356,-395.913 116.894,-392.934"/>
<polygon fill="midnightblue" stroke="midnightblue" points="23.6209,-876.363 27.2851,-886.304 30.62,-876.248 23.6209,-876.363"/>
</g>
<!-- Node40 -->
<g id="node40" class="node"><title>Node40</title>
<g id="a_node40"><a xlink:href="class_test_font_control.html" target="_top" xlink:title="Control to test drawing fonts. ">
<polygon fill="white" stroke="black" points="125,-342.5 125,-361.5 216,-361.5 216,-342.5 125,-342.5"/>
<text text-anchor="middle" x="170.5" y="-349.5" font-family="Helvetica,sans-Serif" font-size="10.00">TestFontControl</text>
</a>
</g>
</g>
<!-- Node1&#45;&gt;Node40 -->
<g id="edge39" class="edge"><title>Node1&#45;&gt;Node40</title>
<path fill="none" stroke="midnightblue" d="M28.4838,-876.322C33.1986,-785.489 54.6784,-409.521 89,-371 98.075,-360.815 111.5,-355.572 124.798,-353.007"/>
<polygon fill="midnightblue" stroke="midnightblue" points="24.9857,-876.197 27.9712,-886.363 31.9766,-876.554 24.9857,-876.197"/>
</g>
<!-- Node41 -->
<g id="node41" class="node"><title>Node41</title>
<g id="a_node41"><a xlink:href="class_test_g_l_control.html" target="_top" xlink:title="Control to test Drawing in using OpenGL in supporting backends. ">
<polygon fill="white" stroke="black" points="129,-304.5 129,-323.5 212,-323.5 212,-304.5 129,-304.5"/>
<text text-anchor="middle" x="170.5" y="-311.5" font-family="Helvetica,sans-Serif" font-size="10.00">TestGLControl</text>
</a>
</g>
</g>
<!-- Node1&#45;&gt;Node41 -->
<g id="edge40" class="edge"><title>Node1&#45;&gt;Node41</title>
<path fill="none" stroke="midnightblue" d="M28.3298,-876.105C32.4773,-780.887 52.2353,-374.589 89,-333 98.9862,-321.703 114.323,-316.477 128.941,-314.242"/>
<polygon fill="midnightblue" stroke="midnightblue" points="24.8316,-875.989 27.9013,-886.13 31.8252,-876.288 24.8316,-875.989"/>
</g>
<!-- Node42 -->
<g id="node42" class="node"><title>Node42</title>
<g id="a_node42"><a xlink:href="class_test_image_control.html" target="_top" xlink:title="Control to test drawing bitmaps. ">
<polygon fill="white" stroke="black" points="120.5,-266.5 120.5,-285.5 220.5,-285.5 220.5,-266.5 120.5,-266.5"/>
<text text-anchor="middle" x="170.5" y="-273.5" font-family="Helvetica,sans-Serif" font-size="10.00">TestImageControl</text>
</a>
</g>
</g>
<!-- Node1&#45;&gt;Node42 -->
<g id="edge41" class="edge"><title>Node1&#45;&gt;Node42</title>
<path fill="none" stroke="midnightblue" d="M28.1764,-876.347C31.7454,-777.728 49.7278,-339.732 89,-295 96.9581,-285.936 108.361,-280.774 120.091,-277.93"/>
<polygon fill="midnightblue" stroke="midnightblue" points="24.6759,-876.302 27.8199,-886.42 31.6716,-876.55 24.6759,-876.302"/>
</g>
<!-- Node43 -->
<g id="node43" class="node"><title>Node43</title>
<g id="a_node43"><a xlink:href="class_test_keyboard_control.html" target="_top" xlink:title="Control to test keyboard input. ">
<polygon fill="white" stroke="black" points="113.5,-228.5 113.5,-247.5 227.5,-247.5 227.5,-228.5 113.5,-228.5"/>
<text text-anchor="middle" x="170.5" y="-235.5" font-family="Helvetica,sans-Serif" font-size="10.00">TestKeyboardControl</text>
</a>
</g>
</g>
<!-- Node1&#45;&gt;Node43 -->
<g id="edge42" class="edge"><title>Node1&#45;&gt;Node43</title>
<path fill="none" stroke="midnightblue" d="M28.0583,-876.084C31.1198,-773.196 47.2826,-304.807 89,-257 95.4201,-249.643 104.109,-244.853 113.409,-241.787"/>
<polygon fill="midnightblue" stroke="midnightblue" points="24.5533,-876.209 27.762,-886.306 31.5504,-876.412 24.5533,-876.209"/>
</g>
<!-- Node44 -->
<g id="node44" class="node"><title>Node44</title>
<g id="a_node44"><a xlink:href="class_test_m_p_s_control.html" target="_top" xlink:title="Control to test IGraphicsNanoVG with Metal Performance Shaders. ">
<polygon fill="white" stroke="black" points="125,-190.5 125,-209.5 216,-209.5 216,-190.5 125,-190.5"/>
<text text-anchor="middle" x="170.5" y="-197.5" font-family="Helvetica,sans-Serif" font-size="10.00">TestMPSControl</text>
</a>
</g>
</g>
<!-- Node1&#45;&gt;Node44 -->
<g id="edge43" class="edge"><title>Node1&#45;&gt;Node44</title>
<path fill="none" stroke="midnightblue" d="M27.9411,-876.239C30.4881,-770.036 44.777,-269.953 89,-219 97.9417,-208.697 111.333,-203.425 124.639,-200.868"/>
<polygon fill="midnightblue" stroke="midnightblue" points="24.4421,-876.16 27.7086,-886.239 31.4402,-876.323 24.4421,-876.16"/>
</g>
<!-- Node45 -->
<g id="node45" class="node"><title>Node45</title>
<g id="a_node45"><a xlink:href="class_test_m_t_control.html" target="_top" xlink:title="Control to test multi touch. ">
<polygon fill="white" stroke="black" points="129,-152.5 129,-171.5 212,-171.5 212,-152.5 129,-152.5"/>
<text text-anchor="middle" x="170.5" y="-159.5" font-family="Helvetica,sans-Serif" font-size="10.00">TestMTControl</text>
</a>
</g>
</g>
<!-- Node1&#45;&gt;Node45 -->
<g id="edge44" class="edge"><title>Node1&#45;&gt;Node45</title>
<path fill="none" stroke="midnightblue" d="M27.8414,-876.185C29.9114,-766.332 42.2962,-235.073 89,-181 98.8556,-169.589 114.169,-164.343 128.805,-162.123"/>
<polygon fill="midnightblue" stroke="midnightblue" points="24.3369,-876.41 27.6551,-886.471 31.3357,-876.536 24.3369,-876.41"/>
</g>
<!-- Node46 -->
<g id="node46" class="node"><title>Node46</title>
<g id="a_node46"><a xlink:href="class_test_shadow_gradient_control.html" target="_top" xlink:title="Control to test drawing shadows with gradients. ">
<polygon fill="white" stroke="black" points="96,-114.5 96,-133.5 245,-133.5 245,-114.5 96,-114.5"/>
<text text-anchor="middle" x="170.5" y="-121.5" font-family="Helvetica,sans-Serif" font-size="10.00">TestShadowGradientControl</text>
</a>
</g>
</g>
<!-- Node1&#45;&gt;Node46 -->
<g id="edge45" class="edge"><title>Node1&#45;&gt;Node46</title>
<path fill="none" stroke="midnightblue" d="M27.7503,-876.204C29.3594,-762.951 39.8017,-200.209 89,-143 92.277,-139.189 96.1627,-136.066 100.429,-133.512"/>
<polygon fill="midnightblue" stroke="midnightblue" points="24.2467,-876.45 27.6113,-886.496 31.2461,-876.544 24.2467,-876.45"/>
</g>
<!-- Node47 -->
<g id="node47" class="node"><title>Node47</title>
<g id="a_node47"><a xlink:href="class_test_size_control.html" target="_top" xlink:title="Control to display the size of a region. ">
<polygon fill="white" stroke="black" points="125.5,-76.5 125.5,-95.5 215.5,-95.5 215.5,-76.5 125.5,-76.5"/>
<text text-anchor="middle" x="170.5" y="-83.5" font-family="Helvetica,sans-Serif" font-size="10.00">TestSizeControl</text>
</a>
</g>
</g>
<!-- Node1&#45;&gt;Node47 -->
<g id="edge46" class="edge"><title>Node1&#45;&gt;Node47</title>
<path fill="none" stroke="midnightblue" d="M27.6673,-876.291C28.8318,-759.892 37.2938,-165.363 89,-105 98.0614,-94.4215 111.813,-89.1316 125.4,-86.6414"/>
<polygon fill="midnightblue" stroke="midnightblue" points="24.1675,-876.258 27.5739,-886.291 31.1672,-876.324 24.1675,-876.258"/>
</g>
<!-- Node48 -->
<g id="node48" class="node"><title>Node48</title>
<g id="a_node48"><a xlink:href="class_test_s_v_g_control.html" target="_top" xlink:title="Control to test drawing SVGs. ">
<polygon fill="white" stroke="black" points="125,-38.5 125,-57.5 216,-57.5 216,-38.5 125,-38.5"/>
<text text-anchor="middle" x="170.5" y="-45.5" font-family="Helvetica,sans-Serif" font-size="10.00">TestSVGControl</text>
</a>
</g>
</g>
<!-- Node1&#45;&gt;Node48 -->
<g id="edge47" class="edge"><title>Node1&#45;&gt;Node48</title>
<path fill="none" stroke="midnightblue" d="M27.594,-876.107C28.3406,-755.983 34.8232,-130.475 89,-67 97.9494,-56.5146 111.507,-51.2214 124.958,-48.7008"/>
<polygon fill="midnightblue" stroke="midnightblue" points="24.0926,-876.367 27.537,-886.386 31.0925,-876.406 24.0926,-876.367"/>
</g>
<!-- Node49 -->
<g id="node49" class="node"><title>Node49</title>
<g id="a_node49"><a xlink:href="class_test_text_control.html" target="_top" xlink:title="Control to test drawing text. ">
<polygon fill="white" stroke="black" points="126,-0.5 126,-19.5 215,-19.5 215,-0.5 126,-0.5"/>
<text text-anchor="middle" x="170.5" y="-7.5" font-family="Helvetica,sans-Serif" font-size="10.00">TestTextControl</text>
</a>
</g>
</g>
<!-- Node1&#45;&gt;Node49 -->
<g id="edge48" class="edge"><title>Node1&#45;&gt;Node49</title>
<path fill="none" stroke="midnightblue" d="M27.5259,-875.965C27.8661,-752.272 32.3442,-95.5971 89,-29 98.1185,-18.2814 112.053,-12.9849 125.779,-10.5299"/>
<polygon fill="midnightblue" stroke="midnightblue" points="24.0254,-876.226 27.5043,-886.234 31.0254,-876.241 24.0254,-876.226"/>
</g>
<!-- Node4 -->
<g id="node4" class="node"><title>Node4</title>
<g id="a_node4"><a xlink:href="class_test_mask_control.html" target="_top" xlink:title="Control to display the size of a region. ">
<polygon fill="white" stroke="black" points="288,-1722.5 288,-1741.5 383,-1741.5 383,-1722.5 288,-1722.5"/>
<text text-anchor="middle" x="335.5" y="-1729.5" font-family="Helvetica,sans-Serif" font-size="10.00">TestMaskControl</text>
</a>
</g>
</g>
<!-- Node3&#45;&gt;Node4 -->
<g id="edge3" class="edge"><title>Node3&#45;&gt;Node4</title>
<path fill="none" stroke="midnightblue" d="M224.814,-1732C245.174,-1732 268.21,-1732 287.897,-1732"/>
<polygon fill="midnightblue" stroke="midnightblue" points="224.753,-1728.5 214.753,-1732 224.753,-1735.5 224.753,-1728.5"/>
</g>
</g>
</svg>
        <g id="navigator" transform="translate(0 0)" fill="#404254">
                <rect fill="#f2f5e9" fill-opacity="0.5" stroke="#606060" stroke-width=".5" x="0" y="0" width="60" height="60"/>
                <use id="zoomplus" xlink:href="#zoomPlus" x="17" y="9" onmousedown="handleZoom(evt,'in')"/>
                <use id="zoomminus" xlink:href="#zoomMin" x="42" y="9" onmousedown="handleZoom(evt,'out')"/>
                <use id="reset" xlink:href="#resetDef" x="30" y="36" onmousedown="handleReset()"/>
                <g id="arrowUp" xlink:href="#dirArrow" transform="translate(30 24)" onmousedown="handlePan(0,-1)">
                  <use xlink:href="#rim" fill="#404040">
                        <set attributeName="fill" to="#808080" begin="arrowUp.mouseover" end="arrowUp.mouseout"/>
                  </use>
                  <path fill="none" stroke="white" stroke-width="1.5" d="M0,-3.0v7 M-2.5,-0.5L0,-3.0L2.5,-0.5"/>
                </g>
                <g id="arrowRight" xlink:href="#dirArrow" transform="rotate(90) translate(36 -43)" onmousedown="handlePan(1,0)">
                  <use xlink:href="#rim" fill="#404040">
                        <set attributeName="fill" to="#808080" begin="arrowRight.mouseover" end="arrowRight.mouseout"/>
                  </use>
                  <path fill="none" stroke="white" stroke-width="1.5" d="M0,-3.0v7 M-2.5,-0.5L0,-3.0L2.5,-0.5"/>
                </g>
                <g id="arrowDown" xlink:href="#dirArrow" transform="rotate(180) translate(-30 -48)" onmousedown="handlePan(0,1)">
                  <use xlink:href="#rim" fill="#404040">
                        <set attributeName="fill" to="#808080" begin="arrowDown.mouseover" end="arrowDown.mouseout"/>
                  </use>
                  <path fill="none" stroke="white" stroke-width="1.5" d="M0,-3.0v7 M-2.5,-0.5L0,-3.0L2.5,-0.5"/>
                </g>
                <g id="arrowLeft" xlink:href="#dirArrow" transform="rotate(270) translate(-36 17)" onmousedown="handlePan(-1,0)">
                  <use xlink:href="#rim" fill="#404040">
                        <set attributeName="fill" to="#808080" begin="arrowLeft.mouseover" end="arrowLeft.mouseout"/>
                  </use>
                  <path fill="none" stroke="white" stroke-width="1.5" d="M0,-3.0v7 M-2.5,-0.5L0,-3.0L2.5,-0.5"/>
                </g>
        </g>
        <svg viewBox="0 0 15 15" width="100%" height="30px" preserveAspectRatio="xMaxYMin meet">
         <g id="arrow_out" transform="scale(0.3 0.3)">
          <a xlink:href="class_i_control__inherit__graph_org.svg" target="_base">
           <rect id="button" ry="5" rx="5" y="6" x="6" height="38" width="38"
                fill="#f2f5e9" fill-opacity="0.5" stroke="#606060" stroke-width="1.0"/>
           <path id="arrow"
             d="M 11.500037,31.436501 C 11.940474,20.09759 22.043105,11.32322 32.158766,21.979434 L 37.068811,17.246167 C 37.068811,17.246167 37.088388,32 37.088388,32 L 22.160133,31.978069 C 22.160133,31.978069 26.997745,27.140456 26.997745,27.140456 C 18.528582,18.264221 13.291696,25.230495 11.500037,31.436501 z"
             style="fill:#404040;"/>
          </a>
         </g>
        </svg>
</svg>
